<svg xmlns="http://www.w3.org/2000/svg" viewBox="0 0 240 126" width="240" height="126"><rect width="240" height="126" fill="#2A1A22"/><circle cx="16.75" cy="36.69" r="1.62" fill="none" stroke="#D4B77A" stroke-opacity="0.38" stroke-width=".9"/><circle cx="27.53" cy="17.61" r="1.86" fill="none" stroke="#D4B77A" stroke-opacity="0.41" stroke-width=".9"/><circle cx="33.02" cy="55.52" r="2.21" fill="none" stroke="#D4B77A" stroke-opacity="0.4" stroke-width=".9"/><circle cx="226.19" cy="36.87" r="1.41" fill="none" stroke="#D4B77A" stroke-opacity="0.31" stroke-width=".9"/><circle cx="214.03" cy="80.18" r="2.42" fill="none" stroke="#D4B77A" stroke-opacity="0.47" stroke-width=".9"/><circle cx="222.25" cy="40.38" r="1.63" fill="none" stroke="#D4B77A" stroke-opacity="0.28" stroke-width=".9"/><line x1="24" y1="112" x2="216" y2="112" stroke="#B8995A" stroke-opacity=".35" stroke-width="1"/><rect x="54" y="42" width="132" height="56" rx="12" fill="#B8995A"/><rect x="54" y="42" width="132" height="6" rx="3" fill="#D4B77A" opacity=".7"/><rect x="64" y="52" width="20" height="17" rx="3" fill="#2A1A22"/><rect x="66" y="54" width="5" height="13" rx="1.5" fill="#D4B77A" opacity=".18"/><rect x="89" y="52" width="20" height="17" rx="3" fill="#2A1A22"/><rect x="91" y="54" width="5" height="13" rx="1.5" fill="#D4B77A" opacity=".18"/><rect x="114" y="52" width="20" height="17" rx="3" fill="#2A1A22"/><rect x="116" y="54" width="5" height="13" rx="1.5" fill="#D4B77A" opacity=".18"/><rect x="139" y="52" width="20" height="17" rx="3" fill="#2A1A22"/><rect x="141" y="54" width="5" height="13" rx="1.5" fill="#D4B77A" opacity=".18"/><rect x="166" y="52" width="13" height="38" rx="3" fill="#2A1A22"/><rect x="54" y="76" width="106" height="5" fill="#D9503C"/><circle cx="182" cy="88" r="3" fill="#F7EFE3" opacity=".85"/><rect x="50" y="88" width="6" height="6" rx="2" fill="#D9503C"/><ellipse cx="120" cy="112" rx="65" ry="2.6" fill="#1A1012" opacity=".6"/><circle cx="84" cy="101" r="10" fill="#1A1012"/><circle cx="84" cy="101" r="4.2" fill="#D4B77A"/><circle cx="156" cy="101" r="10" fill="#1A1012"/><circle cx="156" cy="101" r="4.2" fill="#D4B77A"/><rect x="18" y="18" width="24" height="34" rx="3.36" fill="#B8995A"/><rect x="20.5" y="20.5" width="19" height="29" rx="1.92" fill="none" stroke="#2A1A22" stroke-opacity=".28" stroke-width=".8"/><g transform="translate(23.76 23.78) scale(5.1)" fill="#D9503C"><path d="M0 .38 C-.52 .02 -.56 -.42 -.26 -.47 C-.1 -.5 0 -.4 0 -.28 C0 -.4 .1 -.5 .26 -.47 C.56 -.42 .52 .02 0 .38 Z"/></g><g transform="translate(30 36.36) scale(13.6)" fill="#D9503C"><path d="M0 .38 C-.52 .02 -.56 -.42 -.26 -.47 C-.1 -.5 0 -.4 0 -.28 C0 -.4 .1 -.5 .26 -.47 C.56 -.42 .52 .02 0 .38 Z"/></g><rect x="20.4" y="20" width="19.2" height="1.2" rx=".6" fill="#F7EFE3" opacity=".18"/><rect x="198" y="18" width="24" height="34" rx="3.36" fill="#B8995A"/><rect x="200.5" y="20.5" width="19" height="29" rx="1.92" fill="none" stroke="#2A1A22" stroke-opacity=".28" stroke-width=".8"/><g transform="translate(203.76 23.78) scale(5.1)" fill="#2A1A22"><path d="M0 -.48 C.52 -.1 .56 .3 .26 .33 C.12 .35 .04 .28 .02 .2 L.12 .48 L-.12 .48 L-.02 .2 C-.04 .28 -.12 .35 -.26 .33 C-.56 .3 -.52 -.1 0 -.48 Z"/></g><g transform="translate(210 36.36) scale(13.6)" fill="#2A1A22"><path d="M0 -.48 C.52 -.1 .56 .3 .26 .33 C.12 .35 .04 .28 .02 .2 L.12 .48 L-.12 .48 L-.02 .2 C-.04 .28 -.12 .35 -.26 .33 C-.56 .3 -.52 -.1 0 -.48 Z"/></g><rect x="200.4" y="20" width="19.2" height="1.2" rx=".6" fill="#F7EFE3" opacity=".18"/></svg>