<svg xmlns="http://www.w3.org/2000/svg" viewBox="0 0 240 126" width="240" height="126"><rect width="240" height="126" fill="#2a1f12"/><circle cx="175" cy="20" r="80" fill="#8b7cf6" opacity=".14"/><circle cx="65" cy="126" r="62" fill="#ff6a4d" opacity=".08"/><rect x="112" y="48" width="16" height="44" rx="6" fill="#f4ebdc"/><circle cx="120" cy="40" r="16" fill="#141009" stroke="#f4ebdc" stroke-width="3"/><rect x="118" y="92" width="4" height="22" fill="#f4ebdc"/><polygon points="60.0,26.0 63.7,34.9 73.3,35.7 66.0,41.9 68.2,51.3 60.0,46.3 51.8,51.3 54.0,41.9 46.7,35.7 56.3,34.9" fill="#f4b740"/><polygon points="186.0,26.0 188.6,32.4 195.5,32.9 190.3,37.4 191.9,44.1 186.0,40.5 180.1,44.1 181.7,37.4 176.5,32.9 183.4,32.4" fill="#ff6a4d"/><polygon points="176.0,78.0 179.2,85.6 187.4,86.3 181.1,91.7 183.1,99.7 176.0,95.4 168.9,99.7 170.9,91.7 164.6,86.3 172.8,85.6" fill="#8b7cf6"/><text x="60" y="100" font-size="22" fill="#f4b740" font-family="Arial,Helvetica,sans-serif" font-weight="700" text-anchor="middle">12</text></svg>