<svg xmlns="http://www.w3.org/2000/svg" viewBox="0 0 240 126" width="240" height="126"><rect width="240" height="126" fill="#2A1A22"/><circle cx="18.57" cy="76.68" r="2.18" fill="none" stroke="#D4B77A" stroke-opacity="0.28" stroke-width=".9"/><circle cx="10.79" cy="92.07" r="1.69" fill="none" stroke="#D4B77A" stroke-opacity="0.42" stroke-width=".9"/><circle cx="22.84" cy="90.03" r="1.32" fill="none" stroke="#D4B77A" stroke-opacity="0.39" stroke-width=".9"/><circle cx="212.19" cy="16.57" r="1.44" fill="none" stroke="#D4B77A" stroke-opacity="0.26" stroke-width=".9"/><circle cx="220.31" cy="83.96" r="1.62" fill="none" stroke="#D4B77A" stroke-opacity="0.46" stroke-width=".9"/><circle cx="219.44" cy="72.75" r="2.31" fill="none" stroke="#D4B77A" stroke-opacity="0.29" stroke-width=".9"/><line x1="24" y1="112" x2="216" y2="112" stroke="#B8995A" stroke-opacity=".35" stroke-width="1"/><ellipse cx="98" cy="112" rx="20" ry="2.6" fill="#1A1012" opacity=".6"/><ellipse cx="160" cy="112" rx="25" ry="2.6" fill="#1A1012" opacity=".6"/><path d="M86 110 Q60 86 76 60 Q80 76 90 70 Q86 46 106 32 Q104 54 118 64 Q126 80 110 110 Z" fill="#D9503C"/><path d="M92 110 Q84 94 94 82 Q100 94 106 90 Q110 102 102 110 Z" fill="#B8995A"/><path d="M98 110 Q95 103 99 97 Q102 104 104 102 Q105 108 102 110 Z" fill="#F7EFE3" opacity=".7"/><g transform="translate(160 86) scale(52)" fill="#B8995A"><path d="M0 .38 C-.52 .02 -.56 -.42 -.26 -.47 C-.1 -.5 0 -.4 0 -.28 C0 -.4 .1 -.5 .26 -.47 C.56 -.42 .52 .02 0 .38 Z"/></g><ellipse cx="148.56" cy="71.44" rx="4.16" ry="2.6" fill="#F7EFE3" opacity=".35" transform="rotate(-30 148.56 71.44)"/><g stroke="#D4B77A" stroke-width="1.44" stroke-linecap="round"><line x1="98" y1="26" x2="98" y2="18.8"/><line x1="90" y1="27.6" x2="86.4" y2="22.4"/><line x1="106" y1="27.6" x2="109.6" y2="22.4"/></g></svg>