<svg xmlns="http://www.w3.org/2000/svg" viewBox="0 0 240 126" width="240" height="126"><rect width="240" height="126" fill="#2a1f12"/><circle cx="120" cy="10" r="80" fill="#f4b740" opacity=".14"/><circle cx="120" cy="136" r="62" fill="#ff6a4d" opacity=".08"/><g transform="rotate(0 118.0 33.0)"><rect x="106" y="18" width="24" height="30" rx="5" fill="#f4b740"/><text x="118.0" y="37.2" font-size="12.6" fill="#141009" font-family="Arial,Helvetica,sans-serif" font-weight="700" text-anchor="middle">♥</text></g><g transform="rotate(0 104.0 57.0)"><rect x="92" y="42" width="24" height="30" rx="5" fill="#f4ebdc"/><text x="104.0" y="61.2" font-size="12.6" fill="#141009" font-family="Arial,Helvetica,sans-serif" font-weight="700" text-anchor="middle">♠</text></g><g transform="rotate(0 132.0 57.0)"><rect x="120" y="42" width="24" height="30" rx="5" fill="#f4ebdc"/><text x="132.0" y="61.2" font-size="12.6" fill="#141009" font-family="Arial,Helvetica,sans-serif" font-weight="700" text-anchor="middle">♦</text></g><g transform="rotate(0 90.0 81.0)"><rect x="78" y="66" width="24" height="30" rx="5" fill="#ff6a4d"/><text x="90.0" y="85.2" font-size="12.6" fill="#141009" font-family="Arial,Helvetica,sans-serif" font-weight="700" text-anchor="middle">♦</text></g><g transform="rotate(0 118.0 81.0)"><rect x="106" y="66" width="24" height="30" rx="5" fill="#ff6a4d"/><text x="118.0" y="85.2" font-size="12.6" fill="#141009" font-family="Arial,Helvetica,sans-serif" font-weight="700" text-anchor="middle">♣</text></g><g transform="rotate(0 146.0 81.0)"><rect x="134" y="66" width="24" height="30" rx="5" fill="#ff6a4d"/><text x="146.0" y="85.2" font-size="12.6" fill="#141009" font-family="Arial,Helvetica,sans-serif" font-weight="700" text-anchor="middle">♥</text></g><g transform="rotate(0 76.0 105.0)"><rect x="64" y="90" width="24" height="30" rx="5" fill="#f4ebdc"/><text x="76.0" y="109.2" font-size="12.6" fill="#141009" font-family="Arial,Helvetica,sans-serif" font-weight="700" text-anchor="middle">♣</text></g><g transform="rotate(0 104.0 105.0)"><rect x="92" y="90" width="24" height="30" rx="5" fill="#f4ebdc"/><text x="104.0" y="109.2" font-size="12.6" fill="#141009" font-family="Arial,Helvetica,sans-serif" font-weight="700" text-anchor="middle">♥</text></g><g transform="rotate(0 132.0 105.0)"><rect x="120" y="90" width="24" height="30" rx="5" fill="#f4ebdc"/><text x="132.0" y="109.2" font-size="12.6" fill="#141009" font-family="Arial,Helvetica,sans-serif" font-weight="700" text-anchor="middle">♠</text></g><g transform="rotate(0 160.0 105.0)"><rect x="148" y="90" width="24" height="30" rx="5" fill="#f4ebdc"/><text x="160.0" y="109.2" font-size="12.6" fill="#141009" font-family="Arial,Helvetica,sans-serif" font-weight="700" text-anchor="middle">♦</text></g></svg>