<svg xmlns="http://www.w3.org/2000/svg" viewBox="0 0 240 126" width="240" height="126"><rect width="240" height="126" fill="#2a1f12"/><circle cx="175" cy="20" r="80" fill="#f4b740" opacity=".14"/><circle cx="65" cy="126" r="62" fill="#ff6a4d" opacity=".08"/><circle cx="100" cy="49" r="9" fill="#f4b740"/><path d="M83 88 Q83 61 100 61 Q117 61 117 88 Z" fill="#f4b740"/><circle cx="140" cy="49" r="9" fill="#ff6a4d"/><path d="M123 88 Q123 61 140 61 Q157 61 157 88 Z" fill="#ff6a4d"/><rect x="118" y="36" width="4" height="60" fill="#2a1f12"/><line x1="76" y1="30" x2="50" y2="30" stroke="#f4ebdc" stroke-width="3" stroke-linecap="round"/><polygon points="50,30 57.9,25.7 57.9,34.3" fill="#f4ebdc"/><line x1="164" y1="30" x2="190" y2="30" stroke="#f4ebdc" stroke-width="3" stroke-linecap="round"/><polygon points="190,30 182.1,34.3 182.1,25.7" fill="#f4ebdc"/></svg>