<svg xmlns="http://www.w3.org/2000/svg" viewBox="0 0 240 126" width="240" height="126"><rect width="240" height="126" fill="#2A1A22"/><circle cx="31.93" cy="78.68" r="2.2" fill="none" stroke="#D4B77A" stroke-opacity="0.43" stroke-width=".9"/><circle cx="29.8" cy="55.98" r="2.5" fill="none" stroke="#D4B77A" stroke-opacity="0.42" stroke-width=".9"/><circle cx="207.43" cy="63.32" r="2.41" fill="none" stroke="#D4B77A" stroke-opacity="0.29" stroke-width=".9"/><circle cx="226.08" cy="39.15" r="2.04" fill="none" stroke="#D4B77A" stroke-opacity="0.39" stroke-width=".9"/><circle cx="219.23" cy="93.12" r="1.87" fill="none" stroke="#D4B77A" stroke-opacity="0.29" stroke-width=".9"/><line x1="24" y1="112" x2="216" y2="112" stroke="#B8995A" stroke-opacity=".35" stroke-width="1"/><line x1="36" y1="16" x2="194" y2="16" stroke="#D4B77A" stroke-width="1.6" stroke-dasharray="5 4"/><rect x="196" y="6" width="6" height="6" fill="#2A1A22"/><rect x="202" y="6" width="6" height="6" fill="#F7EFE3"/><rect x="196" y="12" width="6" height="6" fill="#F7EFE3"/><rect x="202" y="12" width="6" height="6" fill="#2A1A22"/><rect x="196" y="18" width="6" height="6" fill="#2A1A22"/><rect x="202" y="18" width="6" height="6" fill="#F7EFE3"/><line x1="196" y1="6" x2="196" y2="112" stroke="#B8995A" stroke-width="1.6"/><line x1="58" y1="70" x2="58" y2="112" stroke="#B8995A" stroke-opacity=".45" stroke-width="1.4" stroke-dasharray="2 4" stroke-linecap="round"/><rect x="44" y="30" width="28" height="38" rx="3.92" fill="#B8995A"/><rect x="46.5" y="32.5" width="23" height="33" rx="2.24" fill="none" stroke="#2A1A22" stroke-opacity=".28" stroke-width=".8"/><g transform="translate(50.72 36.46) scale(5.7)" fill="#D9503C"><path d="M0 .38 C-.52 .02 -.56 -.42 -.26 -.47 C-.1 -.5 0 -.4 0 -.28 C0 -.4 .1 -.5 .26 -.47 C.56 -.42 .52 .02 0 .38 Z"/></g><g transform="translate(58 50.52) scale(15.2)" fill="#D9503C"><path d="M0 .38 C-.52 .02 -.56 -.42 -.26 -.47 C-.1 -.5 0 -.4 0 -.28 C0 -.4 .1 -.5 .26 -.47 C.56 -.42 .52 .02 0 .38 Z"/></g><rect x="46.8" y="32" width="22.4" height="1.2" rx=".6" fill="#F7EFE3" opacity=".18"/><line x1="96" y1="62" x2="96" y2="112" stroke="#B8995A" stroke-opacity=".45" stroke-width="1.4" stroke-dasharray="2 4" stroke-linecap="round"/><rect x="82" y="22" width="28" height="38" rx="3.92" fill="#D9503C"/><rect x="84.5" y="24.5" width="23" height="33" rx="2.24" fill="none" stroke="#2A1A22" stroke-opacity=".28" stroke-width=".8"/><g transform="translate(88.72 28.46) scale(5.7)" fill="#F7EFE3"><path d="M0 -.48 C.52 -.1 .56 .3 .26 .33 C.12 .35 .04 .28 .02 .2 L.12 .48 L-.12 .48 L-.02 .2 C-.04 .28 -.12 .35 -.26 .33 C-.56 .3 -.52 -.1 0 -.48 Z"/></g><g transform="translate(96 42.52) scale(15.2)" fill="#F7EFE3"><path d="M0 -.48 C.52 -.1 .56 .3 .26 .33 C.12 .35 .04 .28 .02 .2 L.12 .48 L-.12 .48 L-.02 .2 C-.04 .28 -.12 .35 -.26 .33 C-.56 .3 -.52 -.1 0 -.48 Z"/></g><rect x="84.8" y="24" width="22.4" height="1.2" rx=".6" fill="#F7EFE3" opacity=".18"/><line x1="134" y1="92" x2="134" y2="112" stroke="#B8995A" stroke-opacity=".45" stroke-width="1.4" stroke-dasharray="2 4" stroke-linecap="round"/><rect x="120" y="52" width="28" height="38" rx="3.92" fill="#B8995A"/><rect x="122.5" y="54.5" width="23" height="33" rx="2.24" fill="none" stroke="#2A1A22" stroke-opacity=".28" stroke-width=".8"/><g transform="translate(126.72 58.46) scale(5.7)" fill="#D9503C"><path d="M0 -.5 L.36 0 L0 .5 L-.36 0 Z"/></g><g transform="translate(134 72.52) scale(15.2)" fill="#D9503C"><path d="M0 -.5 L.36 0 L0 .5 L-.36 0 Z"/></g><rect x="122.8" y="54" width="22.4" height="1.2" rx=".6" fill="#F7EFE3" opacity=".18"/><line x1="172" y1="80" x2="172" y2="112" stroke="#B8995A" stroke-opacity=".45" stroke-width="1.4" stroke-dasharray="2 4" stroke-linecap="round"/><rect x="158" y="40" width="28" height="38" rx="3.92" fill="#B8995A"/><rect x="160.5" y="42.5" width="23" height="33" rx="2.24" fill="none" stroke="#2A1A22" stroke-opacity=".28" stroke-width=".8"/><g transform="translate(164.72 46.46) scale(5.7)" fill="#2A1A22"><circle cy="-.22" r=".2"/><circle cx="-.22" cy=".1" r=".2"/><circle cx=".22" cy=".1" r=".2"/><path d="M-.12 .48 L0 .05 L.12 .48 Z"/></g><g transform="translate(172 60.52) scale(15.2)" fill="#2A1A22"><circle cy="-.22" r=".2"/><circle cx="-.22" cy=".1" r=".2"/><circle cx=".22" cy=".1" r=".2"/><path d="M-.12 .48 L0 .05 L.12 .48 Z"/></g><rect x="160.8" y="42" width="22.4" height="1.2" rx=".6" fill="#F7EFE3" opacity=".18"/></svg>